<?xml version="1.0" encoding="UTF-8"?>
<svg version="1.1" xmlns="http://www.w3.org/2000/svg" width="500" height="500">
<path d="M0 0 C1.2583667 0.15686279 2.5167334 0.31372559 3.81323242 0.4753418 C16.60748266 2.22516218 28.84316535 5.7055484 41.0625 9.8125 C41.95453125 10.10318359 42.8465625 10.39386719 43.765625 10.69335938 C48.19680289 12.17152095 51.95361661 13.78782945 55.9375 16.25 C57.88298556 16.96462685 59.82874235 17.67856323 61.77783203 18.38330078 C65.67869516 19.94876134 69.25508343 22.06519376 72.875 24.1875 C73.69838867 24.66912598 74.52177734 25.15075195 75.37011719 25.64697266 C113.08791614 48.04778886 142.15816145 79.99684387 161.11816406 119.54199219 C161.77459227 120.91039854 162.44380504 122.27266912 163.1171875 123.6328125 C166.85200722 131.50371357 169.33219963 139.95479624 171.9375 148.25 C172.51564453 150.07724609 172.51564453 150.07724609 173.10546875 151.94140625 C176.37914894 163.16724445 177.6594963 174.6548879 178.9375 186.25 C179.08324463 187.55022095 179.08324463 187.55022095 179.23193359 188.87670898 C183.31949207 227.12877103 174.77165569 267.32547272 156.9375 301.25 C156.55948242 301.96929687 156.18146484 302.68859375 155.79199219 303.4296875 C153.18854543 308.37767471 150.56800138 313.31634852 147.9375 318.25 C147.2775 318.25 146.6175 318.25 145.9375 318.25 C145.69257813 318.95769531 145.44765625 319.66539062 145.1953125 320.39453125 C143.0072363 325.36187194 139.47499263 329.41426027 136.15869141 333.67919922 C134.97750859 335.19853753 133.80691734 336.72609179 132.63671875 338.25390625 C128.56970615 343.48079814 128.56970615 343.48079814 126.9375 345.25 C126.2775 345.25 125.6175 345.25 124.9375 345.25 C124.710625 345.80171875 124.48375 346.3534375 124.25 346.921875 C122.55024074 349.93692417 120.38945184 352.06230369 117.9375 354.5 C117.050625 355.39203125 116.16375 356.2840625 115.25 357.203125 C112.9375 359.25 112.9375 359.25 110.9375 359.25 C110.9375 359.91 110.9375 360.57 110.9375 361.25 C109.26851325 362.81668459 107.52553244 364.305181 105.75 365.75 C104.78707031 366.5440625 103.82414062 367.338125 102.83203125 368.15625 C100.2131834 370.05058529 97.98181404 371.22595287 94.9375 372.25 C94.9375 372.91 94.9375 373.57 94.9375 374.25 C91.13104894 377.18582661 87.0049176 379.69090142 82.9375 382.25 C82.03644531 382.82105469 81.13539063 383.39210938 80.20703125 383.98046875 C64.81950936 393.32844381 48.42202601 400.31239892 31.2265625 405.54785156 C29.23624884 406.1583616 27.25752302 406.80640263 25.28125 407.4609375 C14.74394206 410.79775168 3.87990696 411.99742298 -7.0625 413.25 C-8.19945312 413.3840625 -9.33640625 413.518125 -10.5078125 413.65625 C-33.88142894 416.0001224 -58.56113683 413.95959015 -81.0625 407.25 C-82.22007812 406.94191406 -83.37765625 406.63382812 -84.5703125 406.31640625 C-105.33767308 400.71804618 -123.89062245 391.62845573 -142.0625 380.25 C-143.031875 379.64542969 -144.00125 379.04085938 -145 378.41796875 C-149.57252934 375.48154756 -149.57252934 375.48154756 -151.0625 374.25 C-151.0625 373.59 -151.0625 372.93 -151.0625 372.25 C-151.76761719 372.0128125 -152.47273438 371.775625 -153.19921875 371.53125 C-156.56536868 370.02497827 -159.03233173 368.09415483 -161.875 365.75 C-162.85082031 364.9559375 -163.82664062 364.161875 -164.83203125 363.34375 C-165.56808594 362.6528125 -166.30414063 361.961875 -167.0625 361.25 C-167.0625 360.59 -167.0625 359.93 -167.0625 359.25 C-167.89007813 358.9096875 -167.89007813 358.9096875 -168.734375 358.5625 C-171.74942417 356.86274074 -173.87480369 354.70195184 -176.3125 352.25 C-177.20453125 351.363125 -178.0965625 350.47625 -179.015625 349.5625 C-181.0625 347.25 -181.0625 347.25 -181.0625 345.25 C-181.7225 345.25 -182.3825 345.25 -183.0625 345.25 C-190.17953202 337.61617105 -198.53827391 328.13200081 -202.0625 318.25 C-202.7225 318.25 -203.3825 318.25 -204.0625 318.25 C-206.13506611 314.50548214 -208.19360527 310.75341951 -210.25 307 C-211.1172168 305.43378906 -211.1172168 305.43378906 -212.00195312 303.8359375 C-238.25834452 255.77339055 -242.53913032 197.78340469 -227.28076172 145.57519531 C-223.87676375 134.21223859 -219.72314278 123.57573931 -214.07861328 113.14404297 C-213.04366692 111.214895 -212.04786073 109.26932655 -211.05859375 107.31640625 C-207.0197126 99.41733803 -202.49797726 92.29089248 -197.0625 85.25 C-196.59585938 84.60289062 -196.12921875 83.95578125 -195.6484375 83.2890625 C-182.54109968 65.12275219 -166.60124456 49.7892207 -148.5 36.6875 C-147.89172363 36.24519043 -147.28344727 35.80288086 -146.65673828 35.34716797 C-142.30392834 32.25 -142.30392834 32.25 -140.0625 32.25 C-140.0625 31.59 -140.0625 30.93 -140.0625 30.25 C-111.52750077 13.941579 -82.84096171 2.88463444 -50.0625 -0.75 C-49.25256592 -0.8435376 -48.44263184 -0.9370752 -47.6081543 -1.03344727 C-31.67081601 -2.77158242 -15.86720055 -2.02512183 0 0 Z M-94.0625 35.25 C-95.29734131 35.777146 -95.29734131 35.777146 -96.55712891 36.31494141 C-106.05902435 40.42421952 -115.38503404 44.56212037 -124.0625 50.25 C-124.93648438 50.77980469 -125.81046875 51.30960938 -126.7109375 51.85546875 C-132.79745269 55.58068883 -138.29870632 59.72854051 -143.75 64.33203125 C-146.0625 66.25 -146.0625 66.25 -149.0625 68.25 C-149.0625 68.91 -149.0625 69.57 -149.0625 70.25 C-149.7225 70.25 -150.3825 70.25 -151.0625 70.25 C-151.0625 70.91 -151.0625 71.57 -151.0625 72.25 C-151.64515625 72.5078125 -152.2278125 72.765625 -152.828125 73.03125 C-155.2427903 74.34834017 -156.87990177 75.80088384 -158.8125 77.75 C-159.42609375 78.3584375 -160.0396875 78.966875 -160.671875 79.59375 C-162.27684088 81.14484277 -162.27684088 81.14484277 -162.0625 83.25 C-162.7225 83.25 -163.3825 83.25 -164.0625 83.25 C-164.0625 83.91 -164.0625 84.57 -164.0625 85.25 C-164.7225 85.25 -165.3825 85.25 -166.0625 85.25 C-167.87878776 87.19375954 -167.87878776 87.19375954 -169.6875 89.625 C-170.31914062 90.43710938 -170.95078125 91.24921875 -171.6015625 92.0859375 C-173.24900808 94.09109879 -173.24900808 94.09109879 -173.0625 96.25 C-173.7225 96.25 -174.3825 96.25 -175.0625 96.25 C-176.348293 98.09417728 -177.53924818 100.00468567 -178.6875 101.9375 C-179.4107302 103.15277737 -180.13470739 104.36761046 -180.859375 105.58203125 C-181.22740234 106.20158691 -181.59542969 106.82114258 -181.97460938 107.45947266 C-182.94931886 109.06371848 -183.97916235 110.63416015 -185.015625 112.19921875 C-194.11125115 126.04601547 -201.01160066 142.18472605 -205.0625 158.25 C-205.23475098 158.91725098 -205.40700195 159.58450195 -205.58447266 160.27197266 C-206.15315759 162.49068675 -206.705375 164.71276285 -207.25 166.9375 C-207.50112549 167.95336182 -207.50112549 167.95336182 -207.75732422 168.98974609 C-209.76117182 177.55314435 -210.22068424 186.19473878 -210.265625 194.96484375 C-210.27132507 195.86006241 -210.27702515 196.75528107 -210.28289795 197.67762756 C-210.29227771 199.56249843 -210.29885367 201.44738518 -210.30273438 203.33227539 C-210.31237023 206.14955985 -210.34343296 208.96609121 -210.375 211.78320312 C-210.50184786 233.57654993 -207.01384609 254.26339657 -198.0625 274.25 C-197.44346008 275.70233682 -196.8264135 277.15552426 -196.2109375 278.609375 C-192.46982845 287.35632224 -188.40733921 295.34893334 -183.0625 303.25 C-182.31845295 304.51217882 -181.58725167 305.78210984 -180.875 307.0625 C-179.05543438 310.26242574 -177.23560812 313.28008556 -175.0625 316.25 C-174.4025 316.25 -173.7425 316.25 -173.0625 316.25 C-172.835625 316.95125 -172.60875 317.6525 -172.375 318.375 C-170.72408712 321.99128535 -168.7716165 324.33769976 -166.0625 327.25 C-165.4025 327.25 -164.7425 327.25 -164.0625 327.25 C-164.0625 327.91 -164.0625 328.57 -164.0625 329.25 C-163.4025 329.25 -162.7425 329.25 -162.0625 329.25 C-161.67578125 330.12398438 -161.67578125 330.12398438 -161.28125 331.015625 C-159.96415983 333.4302903 -158.51161616 335.06740177 -156.5625 337 C-155.64984375 337.92039062 -155.64984375 337.92039062 -154.71875 338.859375 C-153.16765723 340.46434088 -153.16765723 340.46434088 -151.0625 340.25 C-151.0625 340.91 -151.0625 341.57 -151.0625 342.25 C-150.4025 342.25 -149.7425 342.25 -149.0625 342.25 C-149.0625 342.91 -149.0625 343.57 -149.0625 344.25 C-147.11874046 346.06628776 -147.11874046 346.06628776 -144.6875 347.875 C-143.87539062 348.50664062 -143.06328125 349.13828125 -142.2265625 349.7890625 C-140.22140121 351.43650808 -140.22140121 351.43650808 -138.0625 351.25 C-138.0625 351.91 -138.0625 352.57 -138.0625 353.25 C-131.74625553 358.56605825 -124.36787395 362.48662554 -117.0625 366.25 C-116.47726563 366.55550781 -115.89203125 366.86101562 -115.2890625 367.17578125 C-70.8308601 390.32725179 -20.40338319 396.29452272 27.9375 381.25 C32.07159693 379.807769 35.98027724 378.11477347 39.9375 376.25 C41.2400282 375.69284135 42.54490657 375.14115822 43.8515625 374.59375 C51.60455149 371.32942877 58.83399313 367.78902049 65.9375 363.25 C67.6849839 362.20411785 69.43500177 361.16245815 71.1875 360.125 C76.67160481 356.85259291 76.67160481 356.85259291 81.9375 353.25 C81.9375 352.59 81.9375 351.93 81.9375 351.25 C82.989375 350.9096875 82.989375 350.9096875 84.0625 350.5625 C87.67878535 348.91158712 90.02519976 346.9591165 92.9375 344.25 C92.9375 343.59 92.9375 342.93 92.9375 342.25 C93.5975 342.25 94.2575 342.25 94.9375 342.25 C94.9375 341.59 94.9375 340.93 94.9375 340.25 C95.494375 340.023125 96.05125 339.79625 96.625 339.5625 C99.59909588 337.87449964 101.65758865 335.78323483 103.9375 333.25 C103.9375 332.59 103.9375 331.93 103.9375 331.25 C104.5975 331.25 105.2575 331.25 105.9375 331.25 C105.9375 330.59 105.9375 329.93 105.9375 329.25 C106.5975 329.25 107.2575 329.25 107.9375 329.25 C107.9375 328.59 107.9375 327.93 107.9375 327.25 C108.5975 327.25 109.2575 327.25 109.9375 327.25 C111.75378776 325.30624046 111.75378776 325.30624046 113.5625 322.875 C114.19414062 322.06289063 114.82578125 321.25078125 115.4765625 320.4140625 C117.12400808 318.40890121 117.12400808 318.40890121 116.9375 316.25 C117.5975 316.25 118.2575 316.25 118.9375 316.25 C124.25444604 309.93270071 128.17013341 302.55445406 131.9375 295.25 C132.2483252 294.65944824 132.55915039 294.06889648 132.87939453 293.46044922 C138.04208381 283.63696376 142.26659073 273.7184605 145.9375 263.25 C146.23269531 262.4559375 146.52789062 261.661875 146.83203125 260.84375 C148.6066277 255.90904328 149.83434034 250.84240954 151.0625 245.75 C151.31894287 244.69921265 151.31894287 244.69921265 151.58056641 243.62719727 C153.53323925 235.27041943 154.09425878 227.02149962 154.10546875 218.45703125 C154.10879715 217.54853928 154.11212555 216.6400473 154.11555481 215.70402527 C154.12058663 213.79219056 154.1229643 211.88034718 154.12280273 209.96850586 C154.12498104 207.08757566 154.14315471 204.20703418 154.16210938 201.32617188 C154.20612978 187.33689362 152.9229387 174.26146491 149.625 160.625 C149.29798096 159.26918823 149.29798096 159.26918823 148.96435547 157.88598633 C147.24432653 151.0027792 144.93671503 144.6817444 141.9375 138.25 C141.37945634 136.94338594 140.82640661 135.63463204 140.27734375 134.32421875 C137.0120559 126.57289847 133.4594532 119.36103986 128.9375 112.25 C127.36434573 109.53170957 125.79439887 106.81178565 124.234375 104.0859375 C123.59242188 103.17714844 123.59242188 103.17714844 122.9375 102.25 C122.2775 102.25 121.6175 102.25 120.9375 102.25 C120.2775 100.27 119.6175 98.29 118.9375 96.25 C118.2775 96.25 117.6175 96.25 116.9375 96.25 C116.710625 95.54875 116.48375 94.8475 116.25 94.125 C114.59908712 90.50871465 112.6466165 88.16230024 109.9375 85.25 C109.2775 85.25 108.6175 85.25 107.9375 85.25 C107.9375 84.59 107.9375 83.93 107.9375 83.25 C107.2775 83.25 106.6175 83.25 105.9375 83.25 C105.710625 82.693125 105.48375 82.13625 105.25 81.5625 C103.56199964 78.58840412 101.47073483 76.52991135 98.9375 74.25 C98.2775 74.25 97.6175 74.25 96.9375 74.25 C96.9375 73.59 96.9375 72.93 96.9375 72.25 C96.2775 72.25 95.6175 72.25 94.9375 72.25 C94.9375 71.59 94.9375 70.93 94.9375 70.25 C94.2775 70.25 93.6175 70.25 92.9375 70.25 C92.9375 69.59 92.9375 68.93 92.9375 68.25 C90.99374046 66.43371224 90.99374046 66.43371224 88.5625 64.625 C87.75039063 63.99335937 86.93828125 63.36171875 86.1015625 62.7109375 C84.09640121 61.06349192 84.09640121 61.06349192 81.9375 61.25 C81.9375 60.59 81.9375 59.93 81.9375 59.25 C75.62020071 53.93305396 68.24195406 50.01736659 60.9375 46.25 C60.34694824 45.9391748 59.75639648 45.62834961 59.14794922 45.30810547 C49.32446376 40.14541619 39.4059605 35.92090927 28.9375 32.25 C28.1434375 31.95480469 27.349375 31.65960938 26.53125 31.35546875 C24.3504157 30.57120718 22.16329362 29.89654005 19.9375 29.25 C18.83664062 28.92128906 17.73578125 28.59257813 16.6015625 28.25390625 C-18.08832926 18.66089149 -61.02519452 21.05731569 -94.0625 35.25 Z " fill="#474F59" transform="translate(278.0625,43.75)"/>
<path d="M0 0 C0.92597488 -0.00686325 1.85194977 -0.0137265 2.8059845 -0.02079773 C5.85657227 -0.03904827 8.90664491 -0.03523066 11.95727539 -0.02954102 C14.08427599 -0.03410364 16.21127511 -0.03940945 18.33827209 -0.04542542 C22.79263301 -0.0543531 27.24681459 -0.0519372 31.70117188 -0.04199219 C37.40196415 -0.03050296 43.10213696 -0.05071541 48.80284786 -0.07990932 C53.19442154 -0.0982784 57.58584696 -0.09797742 61.97744942 -0.0922718 C64.07894319 -0.09211868 66.18044707 -0.09815584 68.28190422 -0.11056328 C71.22348475 -0.12548455 74.16392331 -0.1147875 77.10546875 -0.09765625 C78.4000853 -0.1121582 78.4000853 -0.1121582 79.72085571 -0.12695312 C85.48932592 -0.05680698 88.9022949 1.01893654 93.61743164 4.40405273 C95.89156684 8.17058916 96.61743164 10.57257387 96.61743164 14.96655273 C95.351141 19.31942682 93.81224267 21.2092417 90.61743164 24.40405273 C87.46812271 25.45382238 85.22928708 25.50536868 81.92993164 25.46655273 C80.93606445 25.4575293 79.94219727 25.44850586 78.91821289 25.43920898 C77.77932617 25.42180664 77.77932617 25.42180664 76.61743164 25.40405273 C77.01575195 26.14848633 77.01575195 26.14848633 77.42211914 26.90795898 C79.73363876 31.35383795 81.40218245 35.54305598 82.61743164 40.40405273 C83.66930664 40.30092773 84.72118164 40.19780273 85.80493164 40.09155273 C89.61743164 40.40405273 89.61743164 40.40405273 92.42993164 42.59155273 C95.50685415 46.54759596 96.64681497 48.78796959 96.55493164 53.84155273 C95.39172738 58.26172894 93.98964159 60.31883937 90.61743164 63.40405273 C88.61352539 63.86889648 88.61352539 63.86889648 86.49243164 64.15405273 C84.39146119 64.45011276 84.39146119 64.45011276 82.61743164 65.40405273 C81.50670583 67.76492601 81.01647091 70.07298783 80.43774414 72.61499023 C77.62934616 82.16354337 68.68181864 91.28949478 60.17993164 96.15405273 C58.66582144 96.91753445 57.14504037 97.66795112 55.61743164 98.40405273 C54.60616211 98.95899414 54.60616211 98.95899414 53.57446289 99.52514648 C46.64956113 103.07204739 39.25806993 103.63898223 31.61743164 104.40405273 C31.61743164 105.06405273 31.61743164 105.72405273 31.61743164 106.40405273 C32.18848633 106.66573242 32.75954102 106.92741211 33.34790039 107.19702148 C35.78405629 108.49267066 37.77749826 109.99231214 39.92993164 111.71655273 C42.73724689 113.94113038 45.55600743 116.1029199 48.49243164 118.15405273 C50.87066542 119.86638106 52.58642557 121.37304666 54.61743164 123.40405273 C56.16489798 124.69314992 57.72908505 125.96230749 59.30493164 127.21655273 C60.1827832 127.91651367 61.06063477 128.61647461 61.96508789 129.33764648 C64.99430039 131.69766624 68.08442598 133.95975229 71.21899414 136.17749023 C71.68047852 136.58225586 72.14196289 136.98702148 72.61743164 137.40405273 C72.61743164 138.06405273 72.61743164 138.72405273 72.61743164 139.40405273 C73.15368164 139.63092773 73.68993164 139.85780273 74.24243164 140.09155273 C78.23199094 142.29630919 81.6283077 144.81285335 84.05493164 148.71655273 C85.11461296 153.7794746 84.56172 157.85272186 81.86743164 162.27905273 C78.41190729 165.54260351 76.12380131 166.40405273 71.36743164 166.40405273 C62.97418069 164.16585248 56.63295808 157.89080875 50.22241211 152.27563477 C47.80813809 150.1743634 45.48780271 148.3275016 42.72680664 146.69702148 C42.03071289 146.2703418 41.33461914 145.84366211 40.61743164 145.40405273 C40.61743164 144.74405273 40.61743164 144.08405273 40.61743164 143.40405273 C39.95743164 143.40405273 39.29743164 143.40405273 38.61743164 143.40405273 C38.61743164 142.74405273 38.61743164 142.08405273 38.61743164 141.40405273 C38.06571289 141.32026367 37.51399414 141.23647461 36.94555664 141.15014648 C33.8632431 140.16235808 31.8784188 138.49663446 29.36743164 136.46655273 C28.02938477 135.40114258 28.02938477 135.40114258 26.66430664 134.31420898 C25.98883789 133.68385742 25.31336914 133.05350586 24.61743164 132.40405273 C24.61743164 131.74405273 24.61743164 131.08405273 24.61743164 130.40405273 C22.96743164 129.74405273 21.31743164 129.08405273 19.61743164 128.40405273 C19.61743164 127.74405273 19.61743164 127.08405273 19.61743164 126.40405273 C18.87493164 126.14624023 18.13243164 125.88842773 17.36743164 125.62280273 C14.51118225 124.35696493 12.86625011 123.04745784 10.61743164 120.90405273 C6.85629462 117.45161876 2.97771427 114.25812376 -1.07006836 111.15405273 C-1.60438477 110.74219727 -2.13870117 110.3303418 -2.68920898 109.90600586 C-5.27103869 107.93692189 -7.87722234 106.08129552 -10.59741211 104.30639648 C-14.84541823 101.40488318 -17.70157022 98.29701477 -18.90209961 93.19702148 C-19.20937292 89.00238349 -18.58274991 86.0316804 -16.00830078 82.67041016 C-13.31254288 79.71246176 -11.44630708 78.89335747 -7.46972656 78.58105469 C-5.5408749 78.5673317 -3.61153556 78.58983648 -1.68334961 78.64233398 C-0.65251755 78.63952927 0.37831451 78.63672455 1.44038391 78.63383484 C4.72963343 78.62856687 8.01605317 78.66906948 11.30493164 78.71655273 C14.5755245 78.74820753 17.84516908 78.76931101 21.11592102 78.76713562 C23.14629295 78.76726396 25.17679829 78.78696479 27.20671082 78.83015442 C36.74767041 78.85931293 45.10537464 76.41979106 52.27758789 69.96655273 C53.76802857 68.2284295 54.62734057 66.45968545 55.61743164 64.40405273 C54.39380669 64.41404549 54.39380669 64.41404549 53.14546204 64.42424011 C45.45049398 64.48439968 37.75564026 64.53005165 30.06049824 64.55948925 C26.10452031 64.57513231 22.14873701 64.59634544 18.19287109 64.63037109 C14.37383809 64.66301351 10.55499208 64.68091598 6.73583031 64.68868446 C5.28019455 64.69421925 3.8245688 64.70502745 2.36901283 64.7212429 C0.32700261 64.74308295 -1.71423907 64.74601704 -3.75634766 64.74462891 C-4.91772751 64.75129074 -6.07910736 64.75795258 -7.27568054 64.76481628 C-10.72696959 64.36406178 -12.64052296 63.51227381 -15.38256836 61.40405273 C-15.38256836 60.74405273 -15.38256836 60.08405273 -15.38256836 59.40405273 C-16.04256836 59.40405273 -16.70256836 59.40405273 -17.38256836 59.40405273 C-19.70460226 52.43795104 -19.70460226 52.43795104 -18.19506836 47.59155273 C-16.24212098 44.15705906 -14.89150036 42.15851873 -11.38256836 40.40405273 C-9.28970675 40.28347218 -7.19307058 40.22662596 -5.09692383 40.19873047 C-4.13088226 40.18388107 -4.13088226 40.18388107 -3.14532471 40.16873169 C-1.013506 40.13710774 1.118335 40.11235586 3.25024414 40.08764648 C4.72712793 40.06707772 6.20400582 40.04608127 7.68087769 40.02467346 C11.57048775 39.96944475 15.46015101 39.92003904 19.34985352 39.87182617 C23.31800071 39.82161696 27.28607053 39.76592788 31.25415039 39.71069336 C39.04184531 39.60310202 46.82960451 39.50165925 54.61743164 39.40405273 C53.83134521 38.44724609 53.04525879 37.49043945 52.23535156 36.50463867 C51.79317795 35.96643494 51.35100433 35.4282312 50.89543152 34.87371826 C45.32782811 28.47112392 37.25950305 26.83342024 29.14437866 26.21585083 C26.63774535 26.13048619 24.13719591 26.1017631 21.62915039 26.09545898 C19.77042286 26.07033114 17.91169897 26.04493272 16.05297852 26.01928711 C13.16520907 25.99044147 10.27750223 25.96637586 7.38964844 25.94775391 C4.57335225 25.92611387 1.75771744 25.88671975 -1.05834961 25.84545898 C-1.91987137 25.84534317 -2.78139313 25.84522736 -3.66902161 25.84510803 C-8.34216623 25.76798267 -11.63219992 25.5288026 -15.38256836 22.40405273 C-15.38256836 21.74405273 -15.38256836 21.08405273 -15.38256836 20.40405273 C-16.04256836 20.40405273 -16.70256836 20.40405273 -17.38256836 20.40405273 C-19.02458682 15.61113398 -20.04250462 11.79153514 -17.88256836 7.02905273 C-14.28681695 -0.01746012 -6.95887565 -0.03621123 0 0 Z " fill="#454D57" transform="translate(211.382568359375,166.595947265625)"/>
<path d="M0 0 C0 0.33 0 0.66 0 1 C-1.670625 1.2784375 -1.670625 1.2784375 -3.375 1.5625 C-4.57125 2.036875 -5.7675 2.51125 -7 3 C-8.47559911 6.52860658 -9 9.19026034 -9 13 C-10.32 12.67 -11.64 12.34 -13 12 C-13.33 13.32 -13.66 14.64 -14 16 C-14.61806341 10.95248215 -14.66397665 7.11052866 -11.5 2.9375 C-7.87458966 -0.82668203 -5.01398641 -0.60513629 0 0 Z " fill="#595E64" transform="translate(207,246)"/>
<path d="M0 0 C7.92 0 15.84 0 24 0 C23.67 0.99 23.34 1.98 23 3 C23.33 3.66 23.66 4.32 24 5 C23.01 5.33 22.02 5.66 21 6 C20.45859375 5.55011719 19.9171875 5.10023438 19.359375 4.63671875 C15.87813536 2.22175284 12.39864894 2.18746081 8.25 1.8125 C7.06083984 1.6897168 7.06083984 1.6897168 5.84765625 1.56445312 C3.89956666 1.36494997 1.94990129 1.18094062 0 1 C0 0.67 0 0.34 0 0 Z " fill="#3E444C" transform="translate(232,433)"/>
<path d="M0 0 C3.63 0 7.26 0 11 0 C8.4573728 2.5426272 6.56246952 4.01460061 3.5 5.75 C2.33984375 6.42289062 2.33984375 6.42289062 1.15625 7.109375 C-1 8 -1 8 -4 7 C-3 5 -3 5 -2 4 C-1.34 2.68 -0.68 1.36 0 0 Z " fill="#636870" transform="translate(350,425)"/>
<path d="M0 0 C3.18854345 2.46854977 3.97190193 3.8838613 4.9375 7.875 C5.25836526 11.9698519 4.36230491 14.57873083 2 18 C-0.1875 19.375 -0.1875 19.375 -2 20 C-2 19.34 -2 18.68 -2 18 C-1.34 18 -0.68 18 0 18 C1.31626692 14.38026598 2 11.90432869 2 8 C1.34 7.67 0.68 7.34 0 7 C0 4.66666667 0 2.33333333 0 0 Z " fill="#656B71" transform="translate(291,311)"/>
<path d="M0 0 C0.33 0.99 0.66 1.98 1 3 C0.34 3 -0.32 3 -1 3 C-1.33 4.32 -1.66 5.64 -2 7 C-2.66 6.67 -3.32 6.34 -4 6 C-7.00419641 4.9986012 -9.87709365 4.48578543 -13 4 C-8.30968888 0.87312592 -5.74301634 -0.2610462 0 0 Z " fill="#565C62" transform="translate(180,56)"/>
<path d="M0 0 C0.33 0 0.66 0 1 0 C0.67 7.59 0.34 15.18 0 23 C-2.60909589 20.39090411 -2.26108967 18.53273684 -2.2734375 14.9765625 C-2.26570313 14.20054687 -2.25796875 13.42453125 -2.25 12.625 C-2.25773437 11.85671875 -2.26546875 11.0884375 -2.2734375 10.296875 C-2.24935951 3.33833514 -2.24935951 3.33833514 0 0 Z " fill="#87878B" transform="translate(44,237)"/>
<path d="M0 0 C0.66 0 1.32 0 2 0 C1.47731534 2.76276177 0.89130413 5.3260876 0 8 C-2.31 7.67 -4.62 7.34 -7 7 C-6.67 6.01 -6.34 5.02 -6 4 C-3 3 -3 3 -1 3 C-0.67 2.01 -0.34 1.02 0 0 Z " fill="#3F464F" transform="translate(125,86)"/>
<path d="M0 0 C2.97 0.33 5.94 0.66 9 1 C9 1.99 9 2.98 9 4 C7 5.6875 7 5.6875 5 7 C3.5 5.6875 3.5 5.6875 2 4 C2 3.01 2 2.02 2 1 C1.34 0.67 0.68 0.34 0 0 Z " fill="#3F474D" transform="translate(297,49)"/>
<path d="M0 0 C0.625 2.5625 0.625 2.5625 1 5 C-2.375 4.6875 -2.375 4.6875 -6 4 C-6.66 3.01 -7.32 2.02 -8 1 C-2.25 -1.125 -2.25 -1.125 0 0 Z " fill="#626770" transform="translate(204,226)"/>
<path d="M0 0 C-0.639375 0.103125 -1.27875 0.20625 -1.9375 0.3125 C-2.618125 0.539375 -3.29875 0.76625 -4 1 C-4.33 1.99 -4.66 2.98 -5 4 C-9.07467725 5.48882438 -12.66541415 6.26270217 -17 6 C-15.41733775 2.83467549 -12.23555882 2.41630936 -9.0625 1.3125 C-8.41603516 1.07466797 -7.76957031 0.83683594 -7.10351562 0.59179688 C-2.25215616 -1.12607808 -2.25215616 -1.12607808 0 0 Z " fill="#7B7E83" transform="translate(323,419)"/>
<path d="M0 0 C-0.4793247 4.31392226 -1.7457985 6.16569547 -5 9 C-5.5625 7.0625 -5.5625 7.0625 -6 5 C-5.67 4.67 -5.34 4.34 -5 4 C-5 3.01 -5 2.02 -5 1 C-3 0 -3 0 0 0 Z " fill="#545961" transform="translate(423,362)"/>
<path d="M0 0 C7.59 0 15.18 0 23 0 C23 0.33 23 0.66 23 1 C21.91460937 1.06058594 20.82921875 1.12117188 19.7109375 1.18359375 C18.26561514 1.26806064 16.82030318 1.35270551 15.375 1.4375 C14.66214844 1.47681641 13.94929687 1.51613281 13.21484375 1.55664062 C9.08196318 1.80309681 5.07730976 2.23470053 1 3 C0.67 2.01 0.34 1.02 0 0 Z " fill="#3E4347" transform="translate(236,43)"/>
<path d="M0 0 C0.66 0 1.32 0 2 0 C1.44449305 3.59905908 0.25112752 4.99909799 -2.5625 7.25 C-3.20316406 7.77078125 -3.84382813 8.2915625 -4.50390625 8.828125 C-4.99761719 9.21484375 -5.49132812 9.6015625 -6 10 C-6.66 9.67 -7.32 9.34 -8 9 C-6.71937515 7.2925002 -5.38232443 5.62626404 -4 4 C-3.34 4 -2.68 4 -2 4 C-2 3.34 -2 2.68 -2 2 C-1.34 2 -0.68 2 0 2 C0 1.34 0 0.68 0 0 Z " fill="#6E7276" transform="translate(386,371)"/>
<path d="M0 0 C0.99 0.33 1.98 0.66 3 1 C2.54917531 2.46067199 2.08906463 3.91848032 1.625 5.375 C1.36976562 6.18710938 1.11453125 6.99921875 0.8515625 7.8359375 C0 10 0 10 -2 12 C-2 11.34 -2 10.68 -2 10 C-2.66 10 -3.32 10 -4 10 C-3 7 -3 7 -1 4 C-0.36707617 1.88719655 -0.36707617 1.88719655 0 0 Z " fill="#60666C" transform="translate(84,165)"/>
<path d="M0 0 C-1.65 1.98 -3.3 3.96 -5 6 C-5.33 5.34 -5.66 4.68 -6 4 C-6.99 3.67 -7.98 3.34 -9 3 C-6.38997624 -0.48003168 -4.1689578 -0.27793052 0 0 Z " fill="#53575E" transform="translate(331,416)"/>
<path d="M0 0 C3.53600465 1.91135386 5.78972846 3.62642766 8 7 C4.83119306 7 3.56310828 6.7941758 1 5 C0.25 2.375 0.25 2.375 0 0 Z " fill="#6B6E75" transform="translate(250,278)"/>
<path d="M0 0 C1.2065625 0.0309375 1.2065625 0.0309375 2.4375 0.0625 C2.4375 1.0525 2.4375 2.0425 2.4375 3.0625 C0.1275 4.3825 -2.1825 5.7025 -4.5625 7.0625 C-3.5234375 0.0859375 -3.5234375 0.0859375 0 0 Z " fill="#595D63" transform="translate(198.5625,169.9375)"/>
<path d="M0 0 C2.39073445 3.82517513 2.55966552 7.59665524 3 12 C-0.81476684 9.5388601 -0.81476684 9.5388601 -1.6875 7 C-1.8421875 6.01 -1.8421875 6.01 -2 5 C-2.33 4.01 -2.66 3.02 -3 2 C-2.34 2 -1.68 2 -1 2 C-0.67 1.34 -0.34 0.68 0 0 Z " fill="#656971" transform="translate(69,281)"/>
<path d="M0 0 C0.66 0.33 1.32 0.66 2 1 C1.67 2.98 1.34 4.96 1 7 C0.01 7.33 -0.98 7.66 -2 8 C-2 5.69 -2 3.38 -2 1 C-1.34 0.67 -0.68 0.34 0 0 Z M-4 8 C-2 9 -2 9 -2 9 Z " fill="#414850" transform="translate(92,117)"/>
<path d="M0 0 C1.9451 2.91765 2.45276317 4.62537285 3 8 C0.525 7.01 0.525 7.01 -2 6 C-2 4.35 -2 2.7 -2 1 C-1.34 0.67 -0.68 0.34 0 0 Z " fill="#5E636A" transform="translate(291,200)"/>
<path d="M0 0 C1.2380014 3.57644848 0.74926071 6.33694766 0 10 C-0.99 10 -1.98 10 -3 10 C-2.25 2.25 -2.25 2.25 0 0 Z " fill="#41464D" transform="translate(54,187)"/>
<path d="M0 0 C0.33 0.66 0.66 1.32 1 2 C1.61875 2.309375 2.2375 2.61875 2.875 2.9375 C5.05810535 4.02905268 6.37010468 5.20711515 8 7 C6.02 7 4.04 7 2 7 C2 6.01 2 5.02 2 4 C0.68 3.67 -0.64 3.34 -2 3 C-1.34 3 -0.68 3 0 3 C0 2.01 0 1.02 0 0 Z " fill="#6C7074" transform="translate(283,304)"/>
<path d="M0 0 C1.66666667 1.66666667 3.33333333 3.33333333 5 5 C5.8971875 5.8353125 5.8971875 5.8353125 6.8125 6.6875 C8 8 8 8 8 10 C4.95139986 8.98379995 4.13333078 8.22608429 2 6 C1.34 5.67 0.68 5.34 0 5 C0 3.35 0 1.7 0 0 Z " fill="#6E7077" transform="translate(403,110)"/>
<path d="M0 0 C-0.33 0.66 -0.66 1.32 -1 2 C-3.28515625 2.4140625 -3.28515625 2.4140625 -6.0625 2.625 C-6.98160156 2.69976562 -7.90070313 2.77453125 -8.84765625 2.8515625 C-9.55792969 2.90054688 -10.26820313 2.94953125 -11 3 C-11 2.34 -11 1.68 -11 1 C-3.375 -1.125 -3.375 -1.125 0 0 Z " fill="#62676C" transform="translate(220,68)"/>
<path d="M0 0 C0.99 0.33 1.98 0.66 3 1 C4.1875 3.5625 4.1875 3.5625 5 6 C3.68 6.33 2.36 6.66 1 7 C0.67 4.69 0.34 2.38 0 0 Z " fill="#585D62" transform="translate(417,129)"/>
<path d="M0 0 C1.32 0.66 2.64 1.32 4 2 C-1.17578125 5.22265625 -1.17578125 5.22265625 -3 6 C-3.99 5.67 -4.98 5.34 -6 5 C-6 4.34 -6 3.68 -6 3 C-4.02 2.67 -2.04 2.34 0 2 C0 1.34 0 0.68 0 0 Z " fill="#686C71" transform="translate(162,86)"/>
<path d="M0 0 C2.40034102 3.60051153 4.32187705 6.96144535 3.625 11.375 C3.41875 11.91125 3.2125 12.4475 3 13 C0.52943266 9.34785697 -0.60847341 6.40467418 -1 2 C-0.67 1.34 -0.34 0.68 0 0 Z " fill="#7A7C85" transform="translate(73,298)"/>
<path d="M0 0 C0.33 0 0.66 0 1 0 C1 1.98 1 3.96 1 6 C0.34 5.67 -0.32 5.34 -1 5 C-2.32 6.65 -3.64 8.3 -5 10 C-5.66 9.67 -6.32 9.34 -7 9 C-5.85793642 7.49712782 -4.71125043 5.99776716 -3.5625 4.5 C-2.92441406 3.6646875 -2.28632812 2.829375 -1.62890625 1.96875 C-0.82259766 0.99421875 -0.82259766 0.99421875 0 0 Z " fill="#84898C" transform="translate(89,118)"/>
<path d="M0 0 C0 0.66 0 1.32 0 2 C-0.99 2.66 -1.98 3.32 -3 4 C-3.33 4.66 -3.66 5.32 -4 6 C-5.65 5.67 -7.3 5.34 -9 5 C-2.87096774 0 -2.87096774 0 0 0 Z M-9 6 C-7 7 -7 7 -7 7 Z " fill="#717479" transform="translate(162,62)"/>
<path d="M0 0 C0.66 0.33 1.32 0.66 2 1 C2.625 3.0625 2.625 3.0625 3 5 C2.01 5.495 2.01 5.495 1 6 C-1.625 5.0625 -1.625 5.0625 -4 4 C-4 3.34 -4 2.68 -4 2 C-3.01 2 -2.02 2 -1 2 C-0.67 1.34 -0.34 0.68 0 0 Z " fill="#565B60" transform="translate(94,346)"/>
<path d="M0 0 C0.33 0 0.66 0 1 0 C0.48041715 4.37934119 -0.05675742 8.68803391 -1 13 C-1.33 13 -1.66 13 -2 13 C-2.05447047 11.58376784 -2.09300508 10.16691809 -2.125 8.75 C-2.14820313 7.96109375 -2.17140625 7.1721875 -2.1953125 6.359375 C-1.9828378 3.79268059 -1.28654105 2.2083933 0 0 Z " fill="#757B80" transform="translate(453,288)"/>
<path d="M0 0 C2.62901288 1.52206009 4.84365964 2.84365964 7 5 C4.03 5 1.06 5 -2 5 C-1.34 3.35 -0.68 1.7 0 0 Z " fill="#3E4550" transform="translate(243,264)"/>
<path d="M0 0 C0.66 0.33 1.32 0.66 2 1 C1.67 2.32 1.34 3.64 1 5 C0.01 4.67 -0.98 4.34 -2 4 C-2 4.66 -2 5.32 -2 6 C-3.32 5.67 -4.64 5.34 -6 5 C-4.02 3.35 -2.04 1.7 0 0 Z " fill="#717479" transform="translate(127,82)"/>
<path d="M0 0 C2.31 0.33 4.62 0.66 7 1 C5.35 2.32 3.7 3.64 2 5 C1.34 4.67 0.68 4.34 0 4 C0 2.68 0 1.36 0 0 Z " fill="#5A5F67" transform="translate(194,425)"/>
<path d="M0 0 C2.31 0.66 4.62 1.32 7 2 C7 3.65 7 5.3 7 7 C5.83040013 6.02433888 4.66438823 5.044375 3.5 4.0625 C2.8503125 3.51722656 2.200625 2.97195313 1.53125 2.41015625 C1.0259375 1.94480469 0.520625 1.47945313 0 1 C0 0.67 0 0.34 0 0 Z " fill="#77747E" transform="translate(103,396)"/>
<path d="M0 0 C0.99 0 1.98 0 3 0 C3 0.66 3 1.32 3 2 C3.66 2 4.32 2 5 2 C4.67 2.66 4.34 3.32 4 4 C2.02 4 0.04 4 -2 4 C-2 3.34 -2 2.68 -2 2 C-1.34 2 -0.68 2 0 2 C0 1.34 0 0.68 0 0 Z " fill="#5F656A" transform="translate(124,384)"/>
<path d="M0 0 C1.37562854 1.28965176 2.70766393 2.62689293 4 4 C4 4.66 4 5.32 4 6 C4.66 6 5.32 6 6 6 C6 6.66 6 7.32 6 8 C4.125 7.75 4.125 7.75 2 7 C0.27898465 4.41847698 0 3.15081975 0 0 Z " fill="#696C73" transform="translate(99,354)"/>
<path d="M0 0 C0.66 0 1.32 0 2 0 C1.62403791 2.78211944 1.32681541 4.5879284 -0.4375 6.8125 C-2 8 -2 8 -4 8 C-4 7.34 -4 6.68 -4 6 C-3.34 6 -2.68 6 -2 6 C-1.34 4.02 -0.68 2.04 0 0 Z " fill="#73757A" transform="translate(293,323)"/>
<path d="M0 0 C0.66 0.99 1.32 1.98 2 3 C1.01 4.485 1.01 4.485 0 6 C-0.66 6 -1.32 6 -2 6 C-2 6.99 -2 7.98 -2 9 C-2.66 9 -3.32 9 -4 9 C-2.80100302 5.9168649 -1.52299523 2.93720508 0 0 Z " fill="#7B7F83" transform="translate(413,332)"/>
<path d="M0 0 C0.66 0.99 1.32 1.98 2 3 C1.67 3.99 1.34 4.98 1 6 C-0.98 4.68 -2.96 3.36 -5 2 C-2 0 -2 0 0 0 Z " fill="#76787F" transform="translate(203,267)"/>
<path d="M0 0 C-0.33 0.99 -0.66 1.98 -1 3 C-3.5625 4.1875 -3.5625 4.1875 -6 5 C-6 4.01 -6 3.02 -6 2 C-3 0 -3 0 0 0 Z " fill="#64656E" transform="translate(277,257)"/>
<path d="M0 0 C1.32 0.33 2.64 0.66 4 1 C4 1.99 4 2.98 4 4 C2.68 4.33 1.36 4.66 0 5 C0 3.35 0 1.7 0 0 Z " fill="#41454D" transform="translate(194,258)"/>
<path d="M0 0 C0 0.33 0 0.66 0 1 C-1.670625 1.433125 -1.670625 1.433125 -3.375 1.875 C-7.00291092 2.69241329 -7.00291092 2.69241329 -9 5 C-9.66 4.34 -10.32 3.68 -11 3 C-8.21756596 -1.17365106 -4.53441502 -0.22300402 0 0 Z " fill="#7A7E84" transform="translate(207,246)"/>
<path d="M0 0 C1.485 0.99 1.485 0.99 3 2 C2.67 3.65 2.34 5.3 2 7 C0.4375 5.75 0.4375 5.75 -1 4 C-0.6875 1.8125 -0.6875 1.8125 0 0 Z " fill="#42464F" transform="translate(434,158)"/>
<path d="M0 0 C2.125 0.9375 2.125 0.9375 4 2 C3.01 2.495 3.01 2.495 2 3 C1.67 3.99 1.34 4.98 1 6 C0.67 5.01 0.34 4.02 0 3 C-0.66 3 -1.32 3 -2 3 C-2 2.34 -2 1.68 -2 1 C-1.34 0.67 -0.68 0.34 0 0 Z " fill="#676C71" transform="translate(140,73)"/>
<path d="M0 0 C0.99 0.33 1.98 0.66 3 1 C1 4 1 4 -1.125 4.6875 C-1.74375 4.790625 -2.3625 4.89375 -3 5 C-2.625 3.0625 -2.625 3.0625 -2 1 C-1.34 0.67 -0.68 0.34 0 0 Z " fill="#565B60" transform="translate(365,392)"/>
<path d="M0 0 C0.66 0.33 1.32 0.66 2 1 C-0.31 2.65 -2.62 4.3 -5 6 C-5.66 5.67 -6.32 5.34 -7 5 C-4.63707344 2.47411298 -3.33537489 1.11179163 0 0 Z " fill="#686A6F" transform="translate(110,98)"/>
<path d="" fill="#FFFFFF" transform="translate(0,0)"/>
<path d="" fill="#FFFFFF" transform="translate(0,0)"/>
<path d="" fill="#FFFFFF" transform="translate(0,0)"/>
<path d="" fill="#FFFFFF" transform="translate(0,0)"/>
<path d="" fill="#FFFFFF" transform="translate(0,0)"/>
<path d="" fill="#FFFFFF" transform="translate(0,0)"/>
<path d="" fill="#FFFFFF" transform="translate(0,0)"/>
<path d="" fill="#FFFFFF" transform="translate(0,0)"/>
<path d="" fill="#FFFFFF" transform="translate(0,0)"/>
<path d="" fill="#FFFFFF" transform="translate(0,0)"/>
<path d="" fill="#FFFFFF" transform="translate(0,0)"/>
<path d="" fill="#FFFFFF" transform="translate(0,0)"/>
<path d="" fill="#FFFFFF" transform="translate(0,0)"/>
<path d="" fill="#FFFFFF" transform="translate(0,0)"/>
<path d="" fill="#FFFFFF" transform="translate(0,0)"/>
<path d="" fill="#FFFFFF" transform="translate(0,0)"/>
<path d="" fill="#FFFFFF" transform="translate(0,0)"/>
<path d="" fill="#FFFFFF" transform="translate(0,0)"/>
<path d="" fill="#FFFFFF" transform="translate(0,0)"/>
<path d="" fill="#FFFFFF" transform="translate(0,0)"/>
<path d="" fill="#FFFFFF" transform="translate(0,0)"/>
<path d="" fill="#FFFFFF" transform="translate(0,0)"/>
<path d="" fill="#FFFFFF" transform="translate(0,0)"/>
<path d="" fill="#FFFFFF" transform="translate(0,0)"/>
<path d="" fill="#FFFFFF" transform="translate(0,0)"/>
<path d="" fill="#FFFFFF" transform="translate(0,0)"/>
<path d="" fill="#FFFFFF" transform="translate(0,0)"/>
<path d="" fill="#FFFFFF" transform="translate(0,0)"/>
<path d="" fill="#FFFFFF" transform="translate(0,0)"/>
<path d="" fill="#FFFFFF" transform="translate(0,0)"/>
<path d="" fill="#FFFFFF" transform="translate(0,0)"/>
<path d="" fill="#FFFFFF" transform="translate(0,0)"/>
<path d="" fill="#FFFFFF" transform="translate(0,0)"/>
<path d="" fill="#FFFFFF" transform="translate(0,0)"/>
<path d="" fill="#FFFFFF" transform="translate(0,0)"/>
<path d="" fill="#FFFFFF" transform="translate(0,0)"/>
<path d="" fill="#FFFFFF" transform="translate(0,0)"/>
<path d="" fill="#FFFFFF" transform="translate(0,0)"/>
<path d="" fill="#FFFFFF" transform="translate(0,0)"/>
<path d="" fill="#FFFFFF" transform="translate(0,0)"/>
<path d="" fill="#FFFFFF" transform="translate(0,0)"/>
<path d="" fill="#FFFFFF" transform="translate(0,0)"/>
<path d="" fill="#FFFFFF" transform="translate(0,0)"/>
<path d="" fill="#FFFFFF" transform="translate(0,0)"/>
<path d="" fill="#FFFFFF" transform="translate(0,0)"/>
<path d="" fill="#FFFFFF" transform="translate(0,0)"/>
<path d="" fill="#FFFFFF" transform="translate(0,0)"/>
<path d="" fill="#FFFFFF" transform="translate(0,0)"/>
<path d="" fill="#FFFFFF" transform="translate(0,0)"/>
<path d="" fill="#FFFFFF" transform="translate(0,0)"/>
<path d="" fill="#FFFFFF" transform="translate(0,0)"/>
<path d="" fill="#FFFFFF" transform="translate(0,0)"/>
<path d="" fill="#FFFFFF" transform="translate(0,0)"/>
<path d="" fill="#FFFFFF" transform="translate(0,0)"/>
<path d="" fill="#FFFFFF" transform="translate(0,0)"/>
<path d="" fill="#FFFFFF" transform="translate(0,0)"/>
<path d="" fill="#FFFFFF" transform="translate(0,0)"/>
<path d="" fill="#FFFFFF" transform="translate(0,0)"/>
<path d="" fill="#FFFFFF" transform="translate(0,0)"/>
<path d="" fill="#FFFFFF" transform="translate(0,0)"/>
</svg>
